<mxfile host="app.diagrams.net" agent="Mozilla/5.0 (Windows NT 10.0; Win64; x64) AppleWebKit/537.36 (KHTML, like Gecko) Chrome/131.0.0.0 Safari/537.36" version="24.9.0">
  <diagram id="VWp4kNnw4gQVgWc5XUmQ" name="Page-1">
    <mxGraphModel dx="1728" dy="949" grid="1" gridSize="10" guides="1" tooltips="1" connect="1" arrows="1" fold="1" page="1" pageScale="1" pageWidth="3300" pageHeight="4681" math="0" shadow="0">
      <root>
        <mxCell id="0" />
        <mxCell id="1" parent="0" />
        <mxCell id="FP6y7kZhmRgIAx4DandN-1" value="AWS Cloud" style="points=[[0,0],[0.25,0],[0.5,0],[0.75,0],[1,0],[1,0.25],[1,0.5],[1,0.75],[1,1],[0.75,1],[0.5,1],[0.25,1],[0,1],[0,0.75],[0,0.5],[0,0.25]];outlineConnect=0;gradientColor=none;html=1;whiteSpace=wrap;fontSize=12;fontStyle=0;container=1;pointerEvents=0;collapsible=0;recursiveResize=0;shape=mxgraph.aws4.group;grIcon=mxgraph.aws4.group_aws_cloud_alt;strokeColor=#232F3E;fillColor=none;verticalAlign=top;align=left;spacingLeft=30;fontColor=#232F3E;dashed=0;" vertex="1" parent="1">
          <mxGeometry x="730" y="430" width="1360" height="600" as="geometry" />
        </mxCell>
        <mxCell id="FP6y7kZhmRgIAx4DandN-2" value="Region" style="points=[[0,0],[0.25,0],[0.5,0],[0.75,0],[1,0],[1,0.25],[1,0.5],[1,0.75],[1,1],[0.75,1],[0.5,1],[0.25,1],[0,1],[0,0.75],[0,0.5],[0,0.25]];outlineConnect=0;gradientColor=none;html=1;whiteSpace=wrap;fontSize=12;fontStyle=0;container=1;pointerEvents=0;collapsible=0;recursiveResize=0;shape=mxgraph.aws4.group;grIcon=mxgraph.aws4.group_region;strokeColor=#00A4A6;fillColor=none;verticalAlign=top;align=left;spacingLeft=30;fontColor=#147EBA;dashed=1;" vertex="1" parent="FP6y7kZhmRgIAx4DandN-1">
          <mxGeometry x="40" y="40" width="1280" height="521" as="geometry" />
        </mxCell>
        <mxCell id="FP6y7kZhmRgIAx4DandN-3" value="VPC" style="points=[[0,0],[0.25,0],[0.5,0],[0.75,0],[1,0],[1,0.25],[1,0.5],[1,0.75],[1,1],[0.75,1],[0.5,1],[0.25,1],[0,1],[0,0.75],[0,0.5],[0,0.25]];outlineConnect=0;gradientColor=none;html=1;whiteSpace=wrap;fontSize=12;fontStyle=0;container=1;pointerEvents=0;collapsible=0;recursiveResize=0;shape=mxgraph.aws4.group;grIcon=mxgraph.aws4.group_vpc2;strokeColor=#8C4FFF;fillColor=none;verticalAlign=top;align=left;spacingLeft=30;fontColor=#AAB7B8;dashed=0;" vertex="1" parent="FP6y7kZhmRgIAx4DandN-2">
          <mxGeometry x="120" y="40" width="1040" height="350" as="geometry" />
        </mxCell>
        <mxCell id="FP6y7kZhmRgIAx4DandN-5" value="Availability Zone 1" style="fillColor=none;strokeColor=#147EBA;dashed=1;verticalAlign=top;fontStyle=0;fontColor=#147EBA;whiteSpace=wrap;html=1;align=center;fontFamily=Helvetica;fontSize=12;" vertex="1" parent="FP6y7kZhmRgIAx4DandN-3">
          <mxGeometry x="80" y="40" width="400" height="280" as="geometry" />
        </mxCell>
        <mxCell id="FP6y7kZhmRgIAx4DandN-8" value="Availability Zone 2" style="fillColor=none;strokeColor=#147EBA;dashed=1;verticalAlign=top;fontStyle=0;fontColor=#147EBA;whiteSpace=wrap;html=1;align=center;fontFamily=Helvetica;fontSize=12;" vertex="1" parent="FP6y7kZhmRgIAx4DandN-3">
          <mxGeometry x="560" y="40" width="400" height="280" as="geometry" />
        </mxCell>
        <mxCell id="FP6y7kZhmRgIAx4DandN-9" value="Public subnet" style="points=[[0,0],[0.25,0],[0.5,0],[0.75,0],[1,0],[1,0.25],[1,0.5],[1,0.75],[1,1],[0.75,1],[0.5,1],[0.25,1],[0,1],[0,0.75],[0,0.5],[0,0.25]];outlineConnect=0;gradientColor=none;html=1;whiteSpace=wrap;fontSize=12;fontStyle=0;container=1;pointerEvents=0;collapsible=0;recursiveResize=0;shape=mxgraph.aws4.group;grIcon=mxgraph.aws4.group_security_group;grStroke=0;strokeColor=#7AA116;fillColor=#F2F6E8;verticalAlign=top;align=left;spacingLeft=30;fontColor=#248814;dashed=0;" vertex="1" parent="FP6y7kZhmRgIAx4DandN-3">
          <mxGeometry x="120" y="80" width="130" height="160" as="geometry" />
        </mxCell>
        <mxCell id="FP6y7kZhmRgIAx4DandN-17" value="NAT gateway" style="sketch=0;outlineConnect=0;fontColor=#232F3E;gradientColor=none;strokeColor=#232F3E;fillColor=#ffffff;dashed=0;verticalLabelPosition=bottom;verticalAlign=top;align=center;html=1;fontSize=12;fontStyle=0;aspect=fixed;shape=mxgraph.aws4.resourceIcon;resIcon=mxgraph.aws4.nat_gateway;" vertex="1" parent="FP6y7kZhmRgIAx4DandN-9">
          <mxGeometry x="35" y="44" width="60" height="60" as="geometry" />
        </mxCell>
        <mxCell id="FP6y7kZhmRgIAx4DandN-10" value="Public subnet" style="points=[[0,0],[0.25,0],[0.5,0],[0.75,0],[1,0],[1,0.25],[1,0.5],[1,0.75],[1,1],[0.75,1],[0.5,1],[0.25,1],[0,1],[0,0.75],[0,0.5],[0,0.25]];outlineConnect=0;gradientColor=none;html=1;whiteSpace=wrap;fontSize=12;fontStyle=0;container=1;pointerEvents=0;collapsible=0;recursiveResize=0;shape=mxgraph.aws4.group;grIcon=mxgraph.aws4.group_security_group;grStroke=0;strokeColor=#7AA116;fillColor=#F2F6E8;verticalAlign=top;align=left;spacingLeft=30;fontColor=#248814;dashed=0;" vertex="1" parent="FP6y7kZhmRgIAx4DandN-3">
          <mxGeometry x="800" y="80" width="130" height="160" as="geometry" />
        </mxCell>
        <mxCell id="FP6y7kZhmRgIAx4DandN-16" value="NAT gateway" style="sketch=0;outlineConnect=0;fontColor=#232F3E;gradientColor=none;strokeColor=#232F3E;fillColor=#ffffff;dashed=0;verticalLabelPosition=bottom;verticalAlign=top;align=center;html=1;fontSize=12;fontStyle=0;aspect=fixed;shape=mxgraph.aws4.resourceIcon;resIcon=mxgraph.aws4.nat_gateway;" vertex="1" parent="FP6y7kZhmRgIAx4DandN-10">
          <mxGeometry x="35" y="50" width="60" height="60" as="geometry" />
        </mxCell>
        <mxCell id="FP6y7kZhmRgIAx4DandN-11" value="Private subnet" style="points=[[0,0],[0.25,0],[0.5,0],[0.75,0],[1,0],[1,0.25],[1,0.5],[1,0.75],[1,1],[0.75,1],[0.5,1],[0.25,1],[0,1],[0,0.75],[0,0.5],[0,0.25]];outlineConnect=0;gradientColor=none;html=1;whiteSpace=wrap;fontSize=12;fontStyle=0;container=1;pointerEvents=0;collapsible=0;recursiveResize=0;shape=mxgraph.aws4.group;grIcon=mxgraph.aws4.group_security_group;grStroke=0;strokeColor=#00A4A6;fillColor=#E6F6F7;verticalAlign=top;align=left;spacingLeft=30;fontColor=#147EBA;dashed=0;" vertex="1" parent="FP6y7kZhmRgIAx4DandN-3">
          <mxGeometry x="320" y="80" width="130" height="160" as="geometry" />
        </mxCell>
        <mxCell id="FP6y7kZhmRgIAx4DandN-12" value="Private subnet" style="points=[[0,0],[0.25,0],[0.5,0],[0.75,0],[1,0],[1,0.25],[1,0.5],[1,0.75],[1,1],[0.75,1],[0.5,1],[0.25,1],[0,1],[0,0.75],[0,0.5],[0,0.25]];outlineConnect=0;gradientColor=none;html=1;whiteSpace=wrap;fontSize=12;fontStyle=0;container=1;pointerEvents=0;collapsible=0;recursiveResize=0;shape=mxgraph.aws4.group;grIcon=mxgraph.aws4.group_security_group;grStroke=0;strokeColor=#00A4A6;fillColor=#E6F6F7;verticalAlign=top;align=left;spacingLeft=30;fontColor=#147EBA;dashed=0;" vertex="1" parent="FP6y7kZhmRgIAx4DandN-3">
          <mxGeometry x="600" y="80" width="130" height="160" as="geometry" />
        </mxCell>
        <mxCell id="FP6y7kZhmRgIAx4DandN-18" value="Route table" style="sketch=0;outlineConnect=0;fontColor=#232F3E;gradientColor=none;strokeColor=#232F3E;fillColor=#ffffff;dashed=0;verticalLabelPosition=bottom;verticalAlign=top;align=center;html=1;fontSize=12;fontStyle=0;aspect=fixed;shape=mxgraph.aws4.resourceIcon;resIcon=mxgraph.aws4.route_table;" vertex="1" parent="FP6y7kZhmRgIAx4DandN-3">
          <mxGeometry x="150" y="370" width="60" height="60" as="geometry" />
        </mxCell>
        <mxCell id="FP6y7kZhmRgIAx4DandN-19" value="Route table" style="sketch=0;outlineConnect=0;fontColor=#232F3E;gradientColor=none;strokeColor=#232F3E;fillColor=#ffffff;dashed=0;verticalLabelPosition=bottom;verticalAlign=top;align=center;html=1;fontSize=12;fontStyle=0;aspect=fixed;shape=mxgraph.aws4.resourceIcon;resIcon=mxgraph.aws4.route_table;" vertex="1" parent="FP6y7kZhmRgIAx4DandN-3">
          <mxGeometry x="355" y="370" width="60" height="60" as="geometry" />
        </mxCell>
        <mxCell id="FP6y7kZhmRgIAx4DandN-20" value="Route table" style="sketch=0;outlineConnect=0;fontColor=#232F3E;gradientColor=none;strokeColor=#232F3E;fillColor=#ffffff;dashed=0;verticalLabelPosition=bottom;verticalAlign=top;align=center;html=1;fontSize=12;fontStyle=0;aspect=fixed;shape=mxgraph.aws4.resourceIcon;resIcon=mxgraph.aws4.route_table;" vertex="1" parent="FP6y7kZhmRgIAx4DandN-3">
          <mxGeometry x="635" y="370" width="60" height="60" as="geometry" />
        </mxCell>
        <mxCell id="FP6y7kZhmRgIAx4DandN-21" value="Route table" style="sketch=0;outlineConnect=0;fontColor=#232F3E;gradientColor=none;strokeColor=#232F3E;fillColor=#ffffff;dashed=0;verticalLabelPosition=bottom;verticalAlign=top;align=center;html=1;fontSize=12;fontStyle=0;aspect=fixed;shape=mxgraph.aws4.resourceIcon;resIcon=mxgraph.aws4.route_table;" vertex="1" parent="FP6y7kZhmRgIAx4DandN-3">
          <mxGeometry x="835" y="370" width="60" height="60" as="geometry" />
        </mxCell>
        <mxCell id="FP6y7kZhmRgIAx4DandN-22" style="edgeStyle=orthogonalEdgeStyle;rounded=0;orthogonalLoop=1;jettySize=auto;html=1;" edge="1" parent="FP6y7kZhmRgIAx4DandN-3" source="FP6y7kZhmRgIAx4DandN-18">
          <mxGeometry relative="1" as="geometry">
            <mxPoint x="180" y="240" as="targetPoint" />
          </mxGeometry>
        </mxCell>
        <mxCell id="FP6y7kZhmRgIAx4DandN-23" style="edgeStyle=orthogonalEdgeStyle;rounded=0;orthogonalLoop=1;jettySize=auto;html=1;entryX=0.763;entryY=0.714;entryDx=0;entryDy=0;entryPerimeter=0;" edge="1" parent="FP6y7kZhmRgIAx4DandN-3" source="FP6y7kZhmRgIAx4DandN-19" target="FP6y7kZhmRgIAx4DandN-5">
          <mxGeometry relative="1" as="geometry" />
        </mxCell>
        <mxCell id="FP6y7kZhmRgIAx4DandN-24" style="edgeStyle=orthogonalEdgeStyle;rounded=0;orthogonalLoop=1;jettySize=auto;html=1;entryX=0.263;entryY=0.714;entryDx=0;entryDy=0;entryPerimeter=0;" edge="1" parent="FP6y7kZhmRgIAx4DandN-3" source="FP6y7kZhmRgIAx4DandN-20" target="FP6y7kZhmRgIAx4DandN-8">
          <mxGeometry relative="1" as="geometry" />
        </mxCell>
        <mxCell id="FP6y7kZhmRgIAx4DandN-26" style="edgeStyle=orthogonalEdgeStyle;rounded=0;orthogonalLoop=1;jettySize=auto;html=1;entryX=0.762;entryY=0.714;entryDx=0;entryDy=0;entryPerimeter=0;" edge="1" parent="FP6y7kZhmRgIAx4DandN-3" source="FP6y7kZhmRgIAx4DandN-21" target="FP6y7kZhmRgIAx4DandN-8">
          <mxGeometry relative="1" as="geometry" />
        </mxCell>
        <mxCell id="FP6y7kZhmRgIAx4DandN-28" value="EC2" style="sketch=0;points=[[0,0,0],[0.25,0,0],[0.5,0,0],[0.75,0,0],[1,0,0],[0,1,0],[0.25,1,0],[0.5,1,0],[0.75,1,0],[1,1,0],[0,0.25,0],[0,0.5,0],[0,0.75,0],[1,0.25,0],[1,0.5,0],[1,0.75,0]];outlineConnect=0;fontColor=#232F3E;fillColor=#ED7100;strokeColor=#ffffff;dashed=0;verticalLabelPosition=bottom;verticalAlign=top;align=center;html=1;fontSize=12;fontStyle=0;aspect=fixed;shape=mxgraph.aws4.resourceIcon;resIcon=mxgraph.aws4.ec2;" vertex="1" parent="FP6y7kZhmRgIAx4DandN-3">
          <mxGeometry x="346" y="130" width="78" height="78" as="geometry" />
        </mxCell>
        <mxCell id="FP6y7kZhmRgIAx4DandN-29" value="EC2" style="sketch=0;points=[[0,0,0],[0.25,0,0],[0.5,0,0],[0.75,0,0],[1,0,0],[0,1,0],[0.25,1,0],[0.5,1,0],[0.75,1,0],[1,1,0],[0,0.25,0],[0,0.5,0],[0,0.75,0],[1,0.25,0],[1,0.5,0],[1,0.75,0]];outlineConnect=0;fontColor=#232F3E;fillColor=#ED7100;strokeColor=#ffffff;dashed=0;verticalLabelPosition=bottom;verticalAlign=top;align=center;html=1;fontSize=12;fontStyle=0;aspect=fixed;shape=mxgraph.aws4.resourceIcon;resIcon=mxgraph.aws4.ec2;" vertex="1" parent="FP6y7kZhmRgIAx4DandN-3">
          <mxGeometry x="626" y="130" width="78" height="78" as="geometry" />
        </mxCell>
        <mxCell id="FP6y7kZhmRgIAx4DandN-30" value="Security group" style="fillColor=none;strokeColor=#DD3522;verticalAlign=top;fontStyle=0;fontColor=#DD3522;whiteSpace=wrap;html=1;" vertex="1" parent="FP6y7kZhmRgIAx4DandN-3">
          <mxGeometry x="330" y="115" width="380" height="115" as="geometry" />
        </mxCell>
        <mxCell id="FP6y7kZhmRgIAx4DandN-14" value="Internet&#xa;gateway" style="sketch=0;outlineConnect=0;fontColor=#232F3E;gradientColor=none;strokeColor=#232F3E;fillColor=#ffffff;dashed=0;verticalLabelPosition=bottom;verticalAlign=top;align=center;html=1;fontSize=12;fontStyle=0;aspect=fixed;shape=mxgraph.aws4.resourceIcon;resIcon=mxgraph.aws4.internet_gateway;" vertex="1" parent="FP6y7kZhmRgIAx4DandN-2">
          <mxGeometry x="1190" y="185" width="60" height="60" as="geometry" />
        </mxCell>
        <mxCell id="FP6y7kZhmRgIAx4DandN-27" value="Bucket" style="sketch=0;outlineConnect=0;fontColor=#232F3E;gradientColor=none;strokeColor=#232F3E;fillColor=#ffffff;dashed=0;verticalLabelPosition=bottom;verticalAlign=top;align=center;html=1;fontSize=12;fontStyle=0;aspect=fixed;shape=mxgraph.aws4.resourceIcon;resIcon=mxgraph.aws4.bucket;" vertex="1" parent="FP6y7kZhmRgIAx4DandN-2">
          <mxGeometry x="40" y="284" width="60" height="60" as="geometry" />
        </mxCell>
        <mxCell id="FP6y7kZhmRgIAx4DandN-43" style="edgeStyle=orthogonalEdgeStyle;rounded=0;orthogonalLoop=1;jettySize=auto;html=1;" edge="1" parent="FP6y7kZhmRgIAx4DandN-2" source="FP6y7kZhmRgIAx4DandN-32">
          <mxGeometry relative="1" as="geometry">
            <mxPoint x="-110" y="160" as="targetPoint" />
            <Array as="points">
              <mxPoint x="640" y="-110" />
              <mxPoint x="-110" y="-110" />
            </Array>
          </mxGeometry>
        </mxCell>
        <mxCell id="FP6y7kZhmRgIAx4DandN-32" value="Auto Scaling group" style="points=[[0,0],[0.25,0],[0.5,0],[0.75,0],[1,0],[1,0.25],[1,0.5],[1,0.75],[1,1],[0.75,1],[0.5,1],[0.25,1],[0,1],[0,0.75],[0,0.5],[0,0.25]];outlineConnect=0;gradientColor=none;html=1;whiteSpace=wrap;fontSize=12;fontStyle=0;container=1;pointerEvents=0;collapsible=0;recursiveResize=0;shape=mxgraph.aws4.groupCenter;grIcon=mxgraph.aws4.group_auto_scaling_group;grStroke=1;strokeColor=#D86613;fillColor=none;verticalAlign=top;align=center;fontColor=#D86613;dashed=1;spacingTop=25;" vertex="1" parent="FP6y7kZhmRgIAx4DandN-2">
          <mxGeometry x="400" y="10" width="480" height="330" as="geometry" />
        </mxCell>
        <mxCell id="FP6y7kZhmRgIAx4DandN-39" value="" style="edgeStyle=orthogonalEdgeStyle;html=1;endArrow=block;elbow=vertical;startArrow=block;startFill=1;endFill=1;strokeColor=#545B64;rounded=0;" edge="1" parent="FP6y7kZhmRgIAx4DandN-32">
          <mxGeometry width="100" relative="1" as="geometry">
            <mxPoint x="156" y="202.07999999999993" as="sourcePoint" />
            <mxPoint x="340" y="203" as="targetPoint" />
          </mxGeometry>
        </mxCell>
        <mxCell id="FP6y7kZhmRgIAx4DandN-40" style="edgeStyle=orthogonalEdgeStyle;rounded=0;orthogonalLoop=1;jettySize=auto;html=1;endArrow=none;endFill=0;" edge="1" parent="FP6y7kZhmRgIAx4DandN-2" source="FP6y7kZhmRgIAx4DandN-36">
          <mxGeometry relative="1" as="geometry">
            <mxPoint x="640" y="213" as="targetPoint" />
          </mxGeometry>
        </mxCell>
        <mxCell id="FP6y7kZhmRgIAx4DandN-36" value="" style="outlineConnect=0;dashed=0;verticalLabelPosition=bottom;verticalAlign=top;align=center;html=1;shape=mxgraph.aws3.application_load_balancer;fillColor=#F58536;gradientColor=none;" vertex="1" parent="FP6y7kZhmRgIAx4DandN-2">
          <mxGeometry x="605.5" y="420" width="69" height="72" as="geometry" />
        </mxCell>
        <mxCell id="FP6y7kZhmRgIAx4DandN-41" value="Security group" style="fillColor=none;strokeColor=#DD3522;verticalAlign=top;fontStyle=0;fontColor=#DD3522;whiteSpace=wrap;html=1;" vertex="1" parent="FP6y7kZhmRgIAx4DandN-2">
          <mxGeometry x="580" y="401.5" width="120" height="108.5" as="geometry" />
        </mxCell>
        <mxCell id="FP6y7kZhmRgIAx4DandN-13" value="" style="sketch=0;outlineConnect=0;fontColor=#232F3E;gradientColor=none;fillColor=#232F3D;strokeColor=none;dashed=0;verticalLabelPosition=bottom;verticalAlign=top;align=center;html=1;fontSize=12;fontStyle=0;aspect=fixed;pointerEvents=1;shape=mxgraph.aws4.internet;" vertex="1" parent="1">
          <mxGeometry x="2110" y="661" width="78" height="48" as="geometry" />
        </mxCell>
        <mxCell id="FP6y7kZhmRgIAx4DandN-15" style="edgeStyle=orthogonalEdgeStyle;rounded=0;orthogonalLoop=1;jettySize=auto;html=1;" edge="1" parent="1" source="FP6y7kZhmRgIAx4DandN-14" target="FP6y7kZhmRgIAx4DandN-13">
          <mxGeometry relative="1" as="geometry" />
        </mxCell>
        <mxCell id="FP6y7kZhmRgIAx4DandN-44" style="edgeStyle=orthogonalEdgeStyle;rounded=0;orthogonalLoop=1;jettySize=auto;html=1;" edge="1" parent="1" source="FP6y7kZhmRgIAx4DandN-42" target="FP6y7kZhmRgIAx4DandN-27">
          <mxGeometry relative="1" as="geometry">
            <Array as="points">
              <mxPoint x="659" y="790" />
            </Array>
          </mxGeometry>
        </mxCell>
        <mxCell id="FP6y7kZhmRgIAx4DandN-42" value="IAM Role" style="sketch=0;outlineConnect=0;fontColor=#232F3E;gradientColor=none;fillColor=#DD344C;strokeColor=none;dashed=0;verticalLabelPosition=bottom;verticalAlign=top;align=center;html=1;fontSize=12;fontStyle=0;aspect=fixed;pointerEvents=1;shape=mxgraph.aws4.role;" vertex="1" parent="1">
          <mxGeometry x="620" y="640" width="78" height="44" as="geometry" />
        </mxCell>
      </root>
    </mxGraphModel>
  </diagram>
</mxfile>
